<?xml version="1.0" encoding="UTF-8"?> <svg xmlns="http://www.w3.org/2000/svg" width="150" height="150" viewBox="0 0 150 150" fill="none"><g clip-path="url(#clip0_3_35)"><g clip-path="url(#clip1_3_35)"><path d="M66.4399 93.49C71.0399 91.82 73.9499 87.97 79.4399 88.49C89.1599 89.35 96.0499 100.28 105.44 92.87C116.77 83.87 113.79 29.87 108.88 17.67C104.72 7.29999 97.0499 17.44 86.0999 13.95C73.3799 9.89999 62.41 19.95 55.8299 30.36C48.8763 41.5451 45.6029 54.6282 46.4699 67.77C47.3399 79.5 49.4599 99.66 66.4399 93.49Z" fill="#6086BA"></path><path d="M23.02 150.56H46.87L51.16 133.33C51.16 133.33 54.63 107.19 36.7 106.83C36.7 106.83 27.4 113.35 24.86 128.69C24.83 128.69 22.83 140.96 23.02 150.56Z" fill="#5894E7"></path><path d="M105.87 150.56L102.65 137.56C102.65 137.56 99.18 111.42 117.11 111.06C117.11 111.06 127.86 118.89 126.92 150.56H105.87Z" fill="#5894E7"></path><path d="M66.08 69.03H87.84V100.89H66.08V69.03Z" fill="#B6D2F8"></path><path d="M66.08 82.04V69.04H87.85V87.76C80.67 87.54 72.16 86.24 66.08 82.04Z" fill="#83B2F3"></path><path d="M116.7 111.06C113.734 106.524 109.311 103.134 104.16 101.45L85.7599 94.64H68.1599L45.67 101.45C40.5284 103.137 36.1156 106.527 33.1599 111.06H116.7Z" fill="#B6D2F8"></path><path d="M112.16 150.56H39.69L40.16 136.96L29.5 120.84C30.0929 116.415 31.926 112.247 34.7874 108.82C37.6488 105.392 41.4216 102.844 45.67 101.47L63.38 96.47C63.38 96.47 62.32 102.24 76.94 102.24C76.94 102.24 88.68 102.24 90.08 96.31L104.08 101.51C110.845 103.923 116.509 108.7 120.03 114.96L112.16 136.96V150.56Z" fill="#5894E7"></path><path d="M63.7099 71.57C64.4633 73.3389 65.5613 74.94 66.94 76.28C70.5447 79.777 74.7794 82.5594 79.42 84.48C85.11 86.82 93.7 87.12 98.23 82.48C101.89 78.68 103.9 72.92 105.49 67.99C108.59 58.39 108.55 47.91 107.76 37.99C107.58 35.71 107.35 33.44 106.97 31.19C103.43 9.45001 84.83 9.5 84.83 9.5C70.83 8.89 57.97 15.5 55.83 30.32C55 35.99 56.09 42.08 56.37 47.74C56.4883 51.9152 57.1815 56.0541 58.43 60.04C59.7799 63.96 62.02 67.66 63.7099 71.57Z" fill="#B6D2F8"></path><path d="M109.26 50.71C114.51 34.46 110.26 15.35 104 9.37001C86.24 -7.57999 53.42 -1.12999 43.39 25.37C40.29 33.55 41.75 64.08 43.15 73.46C45.03 86.03 49.65 94.64 59.2 94.64C58.94 84.27 59.74 72.79 58.82 60.12C57.9 47.45 59.58 47.24 70.04 41.39C74.7085 38.8704 78.6539 35.197 81.5 30.72C85.5 24.88 82.5 22.83 90.41 23.1C90.41 23.1 108.81 22.47 109.26 50.71Z" fill="#6086BA"></path><path d="M61.9 54.96C61.9 54.96 60.04 47.22 54.09 50.42C54.09 50.42 51.41 51.78 53.34 57.09C53.34 57.09 56.16 64.73 61.9 61.94V54.96Z" fill="#B6D2F8"></path></g></g><defs><clipPath id="clip0_3_35"><rect width="150" height="150" fill="white"></rect></clipPath><clipPath id="clip1_3_35"><rect width="103.97" height="150.56" fill="white" transform="matrix(-1 0 0 1 126.97 0)"></rect></clipPath></defs></svg> 