<?xml version="1.0" encoding="UTF-8"?> <svg xmlns="http://www.w3.org/2000/svg" width="150" height="151" viewBox="0 0 150 151" fill="none"><g clip-path="url(#clip0_8_16)"><path d="M34.3 24.56C34.3 24.56 36.77 22.28 41.5 26.4L43.69 22.99C43.69 22.99 38.39 18.79 34.3 24.56Z" fill="#6086BA"></path><path d="M42.96 14.59C42.96 14.59 40.03 18.23 44.25 22.38L41.4 25.25C41.4 25.25 34.86 17.25 42.96 14.59Z" fill="#6086BA"></path><path d="M30.96 112.73C34.0873 107.96 38.7466 104.397 44.17 102.63L63.51 95.46H81.96L101.3 102.63C106.712 104.403 111.36 107.965 114.48 112.73H30.96Z" fill="#B6D2F8"></path><path d="M97.96 150.33H127.84C127.84 145.22 127.51 137.95 127.51 137.95C125.75 107.4 103.51 102.59 103.51 102.59C86.15 98.39 95.62 125.24 95.62 125.24C95.09 131.73 96.05 140.42 97.96 150.33Z" fill="#5894E7"></path><path d="M85.38 77.29H60.03V102H85.38V77.29Z" fill="#B6D2F8"></path><path d="M85.38 88.78V77.29H60.03V82.98C67.26 89 75.96 89.73 85.38 88.78Z" fill="#83B2F3"></path><path d="M112.36 150.33C112.85 137 112.7 133.33 112.58 128.8C112.31 118.67 110.15 110.12 103.48 102.6L85.37 96.73C85.37 96.73 89.17 103.38 72.57 103.38C72.57 103.38 61.63 102.95 60.03 96.73L41.68 102.62C41.68 102.62 25.96 106.45 23.3 122.96L32.52 139.96L32.2 150.37L112.36 150.33Z" fill="#6086BA"></path><path d="M105.08 46.4C105.8 40.72 104.59 35.27 104.64 29.67C104.64 25.91 103.95 20.24 99.28 19.76C92.8 19.1 90.8 30.29 90.42 35.13C89.89 41.81 91.55 49.03 92.84 55.57C93.3 57.93 93.25 62.65 95.91 63.79C98.19 64.79 100.51 62.47 101.67 60.79C104.47 56.64 104.48 51.16 105.08 46.4Z" fill="#6086BA"></path><path d="M100.27 73.85C97.71 83.85 93.2 86.64 93.2 86.64L87.15 87.82C83.66 87.38 77.66 85.96 77.66 85.96C63.84 81.26 59.83 79.96 57.66 74.74C57.57 74.51 46.76 37.01 46.76 37.01C45.02 17.73 65.23 13.73 68.28 13.18C71.28 12.48 90.54 7.18 96.28 25.67C101.503 41.1677 102.872 57.7043 100.27 73.85Z" fill="#B6D2F8"></path><path d="M106.63 6.98999C107.72 12.99 106.7 21.28 102.05 25.11C97.05 29.26 92.68 28.11 86.61 29.48C80.3 30.88 73.85 31.48 67.5 32.66C63.06 33.52 57.94 34.01 55.89 38.72C53.1883 45.1866 52.6927 52.3634 54.48 59.14C55.99 64.14 56.48 69.14 58.12 75.69C54.2319 72.2667 50.8154 68.3424 47.96 64.02C45.11 59.02 45.11 59.02 41.88 50.25C39.96 45.13 38.33 40.62 38.09 35.33C37.77 28.52 41.09 25.54 44.72 19.33C47.8079 13.6459 53.004 9.40143 59.19 7.50999C59.19 7.50999 90.92 9.28999 90.32 2.04999C90.32 2.04999 97.94 3.98999 96.49 9.04999C96.49 9.04999 104.49 7.58999 102.77 2.04999C103.735 2.54235 104.58 3.23961 105.247 4.09293C105.913 4.94626 106.385 5.93502 106.63 6.98999Z" fill="#6086BA"></path><path d="M55.75 57.84C55.75 57.84 52.34 50.39 46.96 54.84C46.96 54.84 44.52 56.75 47.53 61.73C47.53 61.73 51.9 68.89 57.14 64.93L55.75 57.84Z" fill="#B6D2F8"></path><path d="M55.22 40.48C55.22 40.48 55.22 53.8 57.69 60.87L55.09 61.39C55.09 61.39 53.72 52.25 49.02 52.14L55.22 40.48Z" fill="#6086BA"></path><path d="M48.96 150.33H20.96C20.96 150.33 21.06 143.7 21.08 143.23C21.2265 136.693 21.8548 130.175 22.96 123.73C24.64 114.55 29.1 106.4 38.96 104.07C43.45 103 47.45 105.72 49.88 109.42C49.79 109.4 54.24 114.88 48.96 150.33Z" fill="#5894E7"></path></g><defs><clipPath id="clip0_8_16"><rect width="106.8" height="148.33" fill="white" transform="translate(21 2)"></rect></clipPath></defs></svg> 